<svg width="544" height="1171" viewBox="0 0 544 1171" fill="none" xmlns="http://www.w3.org/2000/svg">
<rect width="544" height="1171" fill="#A9E7DB"/>
<path d="M116.015 585.587H143.812V592.209H116.015V585.587ZM116.785 614H109.085V560.1H147.123V566.799H116.785V614ZM173.778 614.462C169.414 614.462 165.564 613.564 162.228 611.767C158.942 609.97 156.376 607.506 154.528 604.375C152.731 601.244 151.833 597.65 151.833 593.595C151.833 589.54 152.705 585.946 154.451 582.815C156.247 579.684 158.686 577.245 161.766 575.5C164.897 573.703 168.413 572.805 172.315 572.805C176.267 572.805 179.758 573.678 182.787 575.423C185.815 577.168 188.177 579.632 189.871 582.815C191.616 585.946 192.489 589.617 192.489 593.826C192.489 594.134 192.463 594.493 192.412 594.904C192.412 595.315 192.386 595.7 192.335 596.059H157.608V590.746H188.485L185.482 592.594C185.533 589.976 184.994 587.64 183.865 585.587C182.735 583.534 181.17 581.942 179.168 580.813C177.217 579.632 174.933 579.042 172.315 579.042C169.748 579.042 167.464 579.632 165.462 580.813C163.46 581.942 161.894 583.559 160.765 585.664C159.635 587.717 159.071 590.079 159.071 592.748V593.98C159.071 596.701 159.687 599.139 160.919 601.295C162.202 603.4 163.973 605.042 166.232 606.223C168.49 607.404 171.083 607.994 174.009 607.994C176.421 607.994 178.603 607.583 180.554 606.762C182.556 605.941 184.301 604.709 185.79 603.066L189.871 607.84C188.023 609.996 185.713 611.639 182.941 612.768C180.22 613.897 177.166 614.462 173.778 614.462ZM253.804 572.805C257.089 572.805 259.99 573.447 262.505 574.73C265.02 576.013 266.971 577.964 268.357 580.582C269.794 583.2 270.513 586.511 270.513 590.515V614H263.121V591.362C263.121 587.409 262.197 584.432 260.349 582.43C258.501 580.428 255.909 579.427 252.572 579.427C250.108 579.427 247.952 579.94 246.104 580.967C244.256 581.994 242.819 583.508 241.792 585.51C240.817 587.512 240.329 590.002 240.329 592.979V614H232.937V591.362C232.937 587.409 232.013 584.432 230.165 582.43C228.368 580.428 225.776 579.427 222.388 579.427C219.975 579.427 217.845 579.94 215.997 580.967C214.149 581.994 212.712 583.508 211.685 585.51C210.658 587.512 210.145 590.002 210.145 592.979V614H202.753V573.19H209.837V584.047L208.682 581.275C209.965 578.606 211.942 576.527 214.611 575.038C217.28 573.549 220.386 572.805 223.928 572.805C227.829 572.805 231.192 573.78 234.015 575.731C236.838 577.63 238.686 580.531 239.559 584.432L236.556 583.2C237.788 580.069 239.944 577.553 243.024 575.654C246.104 573.755 249.697 572.805 253.804 572.805ZM285.192 614V569.571C285.192 565.567 286.347 562.384 288.657 560.023C291.019 557.61 294.355 556.404 298.667 556.404C300.259 556.404 301.773 556.609 303.21 557.02C304.699 557.379 305.957 557.97 306.983 558.791L304.75 564.412C303.98 563.796 303.108 563.334 302.132 563.026C301.157 562.667 300.13 562.487 299.052 562.487C296.896 562.487 295.254 563.103 294.124 564.335C292.995 565.516 292.43 567.287 292.43 569.648V575.115L292.584 578.503V614H285.192ZM278.262 579.273V573.19H304.288V579.273H278.262ZM311.295 614V556.866H318.687V614H311.295ZM350.245 614.462C346.138 614.462 342.493 613.564 339.311 611.767C336.128 609.97 333.613 607.506 331.765 604.375C329.917 601.192 328.993 597.599 328.993 593.595C328.993 589.54 329.917 585.946 331.765 582.815C333.613 579.684 336.128 577.245 339.311 575.5C342.493 573.703 346.138 572.805 350.245 572.805C354.3 572.805 357.919 573.703 361.102 575.5C364.336 577.245 366.851 579.684 368.648 582.815C370.496 585.895 371.42 589.488 371.42 593.595C371.42 597.65 370.496 601.244 368.648 604.375C366.851 607.506 364.336 609.97 361.102 611.767C357.919 613.564 354.3 614.462 350.245 614.462ZM350.245 607.994C352.863 607.994 355.198 607.404 357.252 606.223C359.356 605.042 360.999 603.374 362.18 601.218C363.36 599.011 363.951 596.47 363.951 593.595C363.951 590.669 363.36 588.154 362.18 586.049C360.999 583.893 359.356 582.225 357.252 581.044C355.198 579.863 352.863 579.273 350.245 579.273C347.627 579.273 345.291 579.863 343.238 581.044C341.184 582.225 339.542 583.893 338.31 586.049C337.078 588.154 336.462 590.669 336.462 593.595C336.462 596.47 337.078 599.011 338.31 601.218C339.542 603.374 341.184 605.042 343.238 606.223C345.291 607.404 347.627 607.994 350.245 607.994ZM389.139 614L373.97 573.19H380.977L394.452 610.15H391.141L405.155 573.19H411.392L425.098 610.15H421.864L435.647 573.19H442.269L427.023 614H419.939L407.08 580.274H409.236L396.223 614H389.139Z" fill="white"/>
<path d="M324.253 619.078C323.452 625.056 320.417 626.82 319 626.954C320.721 627.277 322.252 625.81 322.802 625.036C323.687 624.753 325.071 620.643 325.653 618.624C326.934 614.988 329.088 613.979 330.005 613.928C334.488 614.211 335.141 614.046 334.908 613.928C337.189 613.968 339.293 610.714 340.06 609.081C340.941 606.981 343.295 604.604 344.362 603.679C345.523 603.679 346.347 602.736 346.614 602.265C348.895 602.831 350.666 601.962 351.266 601.457C354.147 599.963 355.568 595.685 355.918 593.732C356.719 588.401 351.449 589.929 348.715 591.359C343.272 594.106 343.245 597.99 343.912 599.589C342.472 600.316 342.345 601.407 342.462 601.861C340.3 603.154 338.56 606.439 337.959 607.92C336.439 611.717 334.458 612.531 333.657 612.464H330.005C326.684 612.343 324.786 616.823 324.253 619.078Z" fill="white"/>
</svg>
